<?xml version="1.0" standalone="no"?><svg xmlns="http://www.w3.org/2000/svg" viewBox="0 0 1440 320"><path fill="white" fill-opacity="1" d="M0,288L30,245.3C60,203,120,117,180,106.7C240,96,300,160,360,192C420,224,480,224,540,192C600,160,660,96,720,101.3C780,107,840,181,900,186.7C960,192,1020,128,1080,133.3C1140,139,1200,213,1260,229.3C1320,245,1380,203,1410,181.3L1440,160L1440,0L1410,0C1380,0,1320,0,1260,0C1200,0,1140,0,1080,0C1020,0,960,0,900,0C840,0,780,0,720,0C660,0,600,0,540,0C480,0,420,0,360,0C300,0,240,0,180,0C120,0,60,0,30,0L0,0Z"></path></svg>