<?xml version="1.0" standalone="no"?><svg xmlns="http://www.w3.org/2000/svg" viewBox="0 0 1440 320"><path fill="#4AC29A" fill-opacity="1" d="M0,288L30,245.3C60,203,120,117,180,106.7C240,96,300,160,360,192C420,224,480,224,540,192C600,160,660,96,720,101.3C780,107,840,181,900,186.7C960,192,1020,128,1080,133.3C1140,139,1200,213,1260,229.3C1320,245,1380,203,1410,181.3L1440,160L1440,320L1410,320C1380,320,1320,320,1260,320C1200,320,1140,320,1080,320C1020,320,960,320,900,320C840,320,780,320,720,320C660,320,600,320,540,320C480,320,420,320,360,320C300,320,240,320,180,320C120,320,60,320,30,320L0,320Z"></path></svg>